<svg width="4" height="4" viewBox="0 0 4 4" fill="none" xmlns="http://www.w3.org/2000/svg">
<path d="M3.68889 4L2.28889 2.6C2.17778 2.68889 2.05 2.75926 1.90556 2.81111C1.76111 2.86296 1.60741 2.88889 1.44444 2.88889C1.04074 2.88889 0.699074 2.74907 0.419444 2.46944C0.139815 2.18981 0 1.84815 0 1.44444C0 1.04074 0.139815 0.699074 0.419444 0.419444C0.699074 0.139815 1.04074 0 1.44444 0C1.84815 0 2.18981 0.139815 2.46944 0.419444C2.74907 0.699074 2.88889 1.04074 2.88889 1.44444C2.88889 1.60741 2.86296 1.76111 2.81111 1.90556C2.75926 2.05 2.68889 2.17778 2.6 2.28889L4 3.68889L3.68889 4ZM1.44444 2.44444C1.72222 2.44444 1.95833 2.34722 2.15278 2.15278C2.34722 1.95833 2.44444 1.72222 2.44444 1.44444C2.44444 1.16667 2.34722 0.930556 2.15278 0.736111C1.95833 0.541667 1.72222 0.444444 1.44444 0.444444C1.16667 0.444444 0.930556 0.541667 0.736111 0.736111C0.541667 0.930556 0.444444 1.16667 0.444444 1.44444C0.444444 1.72222 0.541667 1.95833 0.736111 2.15278C0.930556 2.34722 1.16667 2.44444 1.44444 2.44444Z" fill="white"/>
</svg>
