<svg width="4" height="5" viewBox="0 0 4 5" fill="none" xmlns="http://www.w3.org/2000/svg">
<path d="M0 4.24999V3.74999H0.499998V1.99999C0.499998 1.65416 0.604165 1.34791 0.812497 1.08125C1.02083 0.810414 1.29166 0.633331 1.625 0.549998V0.374999C1.625 0.270832 1.66041 0.183333 1.73124 0.112499C1.80624 0.0374998 1.89583 0 1.99999 0C2.10416 0 2.19166 0.0374998 2.26249 0.112499C2.33749 0.183333 2.37499 0.270832 2.37499 0.374999V0.549998C2.70833 0.633331 2.97916 0.810414 3.18749 1.08125C3.39582 1.34791 3.49999 1.65416 3.49999 1.99999V3.74999H3.99999V4.24999H0ZM1.99999 4.99998C1.86249 4.99998 1.74374 4.95207 1.64375 4.85623C1.54791 4.75624 1.5 4.63749 1.5 4.49999H2.49999C2.49999 4.63749 2.44999 4.75624 2.34999 4.85623C2.25416 4.95207 2.13749 4.99998 1.99999 4.99998ZM0.999997 3.74999H2.99999V1.99999C2.99999 1.72499 2.90207 1.48958 2.70624 1.29375C2.51041 1.09791 2.27499 0.999997 1.99999 0.999997C1.72499 0.999997 1.48958 1.09791 1.29375 1.29375C1.09791 1.48958 0.999997 1.72499 0.999997 1.99999V3.74999Z" fill="white"/>
</svg>
